# xmcd
#
# Track frame offsets: 
#        182
#        62282
#        88357
#        136957
#        200182
#        234395
#
# Disc length: 3690 seconds
#
# Revision: 5
# Processed by: cddbd v1.5.2PL0 Copyright (c) Steve Scherf et al.
# Submitted via: ExactAudioCopy v1.1
#
DISCID=510e6806
DTITLE=Malcolm Bilson and John Eliot Gardiner and English Baroque Soloists
DTITLE=Various Artist - Mozart The Piano Concertos CD9
DYEAR=1986
DGENRE=Classical
TTITLE0=Mozart Piano Concerto No 26 in D KV 537 Coronation - 1 Allegro
TTITLE1=Mozart Piano Concerto No 26 in D KV 537 Coronation - 2 Larghet
TTITLE1=to
TTITLE2=Mozart Piano Concerto No 26 in D KV 537 Coronation - 3 Allegre
TTITLE2=tto
TTITLE3=Mozart Piano Concerto No 27 in B Flat KV 595 - 1 Allegro
TTITLE4=Mozart Piano Concerto No 27 in B Flat KV 595 - 2 Larghetto
TTITLE5=Mozart Piano Concerto No 27 in B Flat KV 595 - 3 Allegro
EXTD=Malcom Bilson, John Eliot Gardiner, English Baroque Soloists\n
EXTT0=
EXTT1=
EXTT2=
EXTT3=
EXTT4=
EXTT5=
PLAYORDER=
